<svg id="Guide" height="512" viewBox="0 0 512 512" width="512" xmlns="http://www.w3.org/2000/svg"><path d="m73.938 487.321c-12.1 0-21.938-10.138-21.938-22.6v-420.121c0-12.462 9.841-22.6 21.938-22.6h-30c-12.097 0-21.938 10.138-21.938 22.6v420.122c0 12.461 9.841 22.6 21.938 22.6 3.186.025 315.354 2.492 438.474 2.679h.011a7.34 7.34 0 0 0 .976-.073c-137.017-.454-406.499-2.584-409.461-2.607z" fill="#d4e1f4"/><path d="m392.315 328.966a33.563 33.563 0 0 0 -54.35-3.721l-45.03 53.805a21.4 21.4 0 0 1 -18.452 7.764 21.636 21.636 0 0 1 -17.013-10.959l-81.253-140.576a33.583 33.583 0 0 0 -56.1-3.578l-108.653 125.481a6 6 0 1 0 9.072 7.855l108.785-125.637.271-.337a21.585 21.585 0 0 1 36.236 2.221l81.252 140.576a33.576 33.576 0 0 0 55.057 4.892l45.03-53.805a21.57 21.57 0 0 1 35.25 2.83l.356.591 108.274 111.277a6 6 0 1 0 8.6-8.369z" fill="#1ae5be"/><path d="m284.988 218.5c29.7 0 53.864-24.671 53.864-54.995s-24.164-54.995-53.864-54.995-53.863 24.671-53.863 54.995 24.163 54.995 53.863 54.995zm0-97.99c23.084 0 41.864 19.287 41.864 42.995s-18.78 43-41.864 43-41.863-19.288-41.863-42.995 18.775-42.996 41.863-42.996z" fill="#1ae5be"/><path d="m460.646 10h-416.708c-18.714 0-33.938 15.521-33.938 34.6v420.122c0 19.078 15.224 34.6 33.89 34.6 3.139.025 315.346 2.492 438.5 2.679h.03a19.282 19.282 0 0 0 13.827-5.813 19.917 19.917 0 0 0 5.753-14.418l-7.421-437.793c-.33-18.735-15.553-33.977-33.933-33.977zm27.059 477.764a7.377 7.377 0 0 1 -5.282 2.236h-.011c-123.12-.187-435.288-2.654-438.474-2.679-12.1 0-21.938-10.138-21.938-22.6v-420.121c0-12.462 9.841-22.6 21.938-22.6h416.708c11.879 0 21.719 9.954 21.935 22.184l7.419 437.784a8.007 8.007 0 0 1 -2.295 5.796z" fill="#0635c9"/></svg>